<svg xmlns="http://www.w3.org/2000/svg" version="1.1" xmlns:xlink="http://www.w3.org/1999/xlink" xmlns:svgjs="http://svgjs.dev/svgjs" width="2000" height="2000" viewBox="0 0 2000 2000"><g transform="matrix(1,0,0,1,-0.28443113772425477,-0.28443113772459583)"><svg viewBox="0 0 334 334" data-background-color="#000000" preserveAspectRatio="xMidYMid meet" height="2000" width="2000" xmlns="http://www.w3.org/2000/svg" xmlns:xlink="http://www.w3.org/1999/xlink"><g id="tight-bounds" transform="matrix(1,0,0,1,0.04749999999998522,0.04750000000001364)"><svg viewBox="0 0 333.90454557049503 333.90454557049503" height="333.90454557049503" width="333.90454557049503"><g><svg></svg></g><g><svg viewBox="0 0 333.90454557049503 333.90454557049503" height="333.90454557049503" width="333.90454557049503"><g><path d="M0 166.952c0-92.205 74.747-166.952 166.952-166.952 92.205 0 166.952 74.747 166.953 166.952 0 92.205-74.747 166.952-166.953 166.953-92.205 0-166.952-74.747-166.952-166.953zM166.952 316.63c82.665 0 149.677-67.013 149.678-149.678 0-82.665-67.013-149.677-149.678-149.677-82.665 0-149.677 67.013-149.677 149.677 0 82.665 67.013 149.677 149.677 149.678z" data-fill-palette-color="tertiary" fill="#ed1703" stroke="transparent"></path><ellipse rx="160.27418187383762" ry="160.27418187383762" cx="166.95227278524752" cy="166.95227278524752" fill="#ed1703" stroke="transparent" stroke-width="0" fill-opacity="1" data-fill-palette-color="tertiary"></ellipse></g><g transform="matrix(1,0,0,1,99.04531413411149,71.17305217166896)"><svg viewBox="0 0 135.81391730227205 191.55844122715712" height="191.55844122715712" width="135.81391730227205"><g><svg viewBox="0 0 135.81391730227205 191.55844122715712" height="191.55844122715712" width="135.81391730227205"><g><svg viewBox="0 0 135.81391730227205 191.55844122715712" height="191.55844122715712" width="135.81391730227205"><g><svg viewBox="0 0 135.81391730227205 191.55844122715712" height="191.55844122715712" width="135.81391730227205"><g id="textblocktransform"><svg viewBox="0 0 135.81391730227205 191.55844122715712" height="191.55844122715712" width="135.81391730227205" id="textblock"><g><svg viewBox="0 0 135.81391730227205 191.55844122715712" height="191.55844122715712" width="135.81391730227205"><g transform="matrix(1,0,0,1,0,0)"><svg width="135.81391730227205" viewBox="2.0181819052480003 -32.4 23.081818094752002 32.55" height="191.55844122715712" data-palette-color="#ffffff"><path d="M8-32.1L8-32.1Q11.45-32.1 15.6-32.25 19.75-32.4 23.7-32.4L23.7-32.4Q23.95-30.55 24.35-29 24.75-27.45 25.1-25.8L25.1-25.8Q24.85-25.55 24.25-25.55L24.25-25.55Q23.6-25.55 23.55-25.9L23.55-25.9Q22.75-28.85 21.3-29.65 19.85-30.45 17.9-30.45L17.9-30.45 13.7-30.45Q13.4-30.45 12.6-30.43 11.8-30.4 11.1-30.3 10.4-30.2 10.3-29.95L10.3-29.95Q10.15-29.45 10.13-28.65 10.1-27.85 10.1-27L10.1-27Q10.1-26.65 10.1-26.45L10.1-26.45 10.1-17.35Q10.1-17.15 10.75-17.1 11.4-17.05 12.2-17.05L12.2-17.05 14.75-17.05Q16.5-17.05 17.48-17.15 18.45-17.25 18.9-17.6 19.35-17.95 19.6-18.65 19.85-19.35 20.15-20.55L20.15-20.55Q20.2-20.9 20.85-20.9L20.85-20.9Q21.45-20.9 21.7-20.65L21.7-20.65 21.7-11.45Q21.5-11.25 20.9-11.25L20.9-11.25Q20.3-11.25 20.15-11.6L20.15-11.6Q19.8-13 19.58-13.63 19.35-14.25 19.18-14.48 19-14.7 18.75-14.85L18.75-14.85Q18.5-15.05 17.6-15.13 16.7-15.2 15.63-15.23 14.55-15.25 13.6-15.25L13.6-15.25Q12.95-15.25 12.13-15.23 11.3-15.2 10.7-15.13 10.1-15.05 10.1-14.8L10.1-14.8 10.1-5.65Q10.1-5.5 10.1-5.35 10.1-5.2 10.1-5.05L10.1-5.05Q10.1-4.1 10.13-3.33 10.15-2.55 10.3-2.05L10.3-2.05Q10.4-1.8 11.23-1.6 12.05-1.4 12.98-1.33 13.9-1.25 14.2-1.25L14.2-1.25Q14.35-1.05 14.38-0.55 14.4-0.05 14.2 0.15L14.2 0.15Q12.7 0.05 11.08-0.03 9.45-0.1 8-0.1L8-0.1Q6.3-0.1 4.98 0.03 3.65 0.15 2.2 0.15L2.2 0.15Q2-0.05 2.02-0.55 2.05-1.05 2.2-1.25L2.2-1.25Q2.5-1.25 3.3-1.33 4.1-1.4 4.83-1.6 5.55-1.8 5.6-2.05L5.6-2.05Q5.8-2.65 5.83-3.6 5.85-4.55 5.85-5.65L5.85-5.65 5.85-26.5Q5.85-27.6 5.83-28.58 5.8-29.55 5.6-30.15L5.6-30.15Q5.55-30.45 4.83-30.6 4.1-30.75 3.3-30.83 2.5-30.9 2.2-30.9L2.2-30.9Q2.05-31.1 2.02-31.6 2-32.1 2.2-32.3L2.2-32.3Q3.7-32.25 5.15-32.18 6.6-32.1 8-32.1Z" opacity="1" transform="matrix(1,0,0,1,0,0)" fill="#ffffff" class="wordmark-text-0" data-fill-palette-color="quaternary" id="text-0"></path></svg></g></svg></g></svg></g></svg></g><g></g></svg></g></svg></g></svg></g></svg></g><defs></defs></svg><rect width="333.90454557049503" height="333.90454557049503" fill="none" stroke="none" visibility="hidden"></rect></g></svg></g></svg>